# Blender 3.6.5
# www.blender.org
mtllib model.mtl
o Cylinder.001
v -0.000000 -0.052987 -0.529872
v -0.000000 0.052987 -0.529872
v 0.069162 -0.052987 -0.525338
v 0.069162 0.052987 -0.525338
v 0.137141 -0.052987 -0.511817
v 0.137141 0.052987 -0.511817
v 0.202773 -0.052987 -0.489537
v 0.202773 0.052987 -0.489537
v 0.264936 -0.052987 -0.458882
v 0.264936 0.052987 -0.458882
v 0.322565 -0.052987 -0.420375
v 0.322565 0.052987 -0.420375
v 0.374676 -0.052987 -0.374676
v 0.374676 0.052987 -0.374676
v 0.420375 -0.052987 -0.322565
v 0.420375 0.052987 -0.322565
v 0.458882 -0.052987 -0.264936
v 0.458882 0.052987 -0.264936
v 0.489537 -0.052987 -0.202773
v 0.489537 0.052987 -0.202773
v 0.511817 -0.052987 -0.137141
v 0.511817 0.052987 -0.137141
v 0.525338 -0.052987 -0.069162
v 0.525338 0.052987 -0.069162
v 0.529872 -0.052987 0.000000
v 0.529872 0.052987 0.000000
v 0.525338 -0.052987 0.069162
v 0.525338 0.052987 0.069162
v 0.511817 -0.052987 0.137141
v 0.511817 0.052987 0.137141
v 0.489537 -0.052987 0.202773
v 0.489537 0.052987 0.202773
v 0.458882 -0.052987 0.264936
v 0.458882 0.052987 0.264936
v 0.420375 -0.052987 0.322565
v 0.420375 0.052987 0.322565
v 0.374676 -0.052987 0.374676
v 0.374676 0.052987 0.374676
v 0.322565 -0.052987 0.420375
v 0.322565 0.052987 0.420375
v 0.264936 -0.052987 0.458882
v 0.264936 0.052987 0.458882
v 0.202773 -0.052987 0.489537
v 0.202773 0.052987 0.489537
v 0.137141 -0.052987 0.511817
v 0.137141 0.052987 0.511817
v 0.069162 -0.052987 0.525338
v 0.069162 0.052987 0.525338
v -0.000000 -0.052987 0.529872
v -0.000000 0.052987 0.529872
v -0.069162 -0.052987 0.525338
v -0.069162 0.052987 0.525338
v -0.137141 -0.052987 0.511817
v -0.137141 0.052987 0.511817
v -0.202773 -0.052987 0.489537
v -0.202773 0.052987 0.489537
v -0.264936 -0.052987 0.458882
v -0.264936 0.052987 0.458882
v -0.322565 -0.052987 0.420375
v -0.322565 0.052987 0.420375
v -0.374676 -0.052987 0.374676
v -0.374676 0.052987 0.374676
v -0.420375 -0.052987 0.322565
v -0.420375 0.052987 0.322565
v -0.458882 -0.052987 0.264936
v -0.458882 0.052987 0.264936
v -0.489537 -0.052987 0.202773
v -0.489537 0.052987 0.202773
v -0.511817 -0.052987 0.137141
v -0.511817 0.052987 0.137141
v -0.525338 -0.052987 0.069162
v -0.525338 0.052987 0.069162
v -0.529872 -0.052987 0.000000
v -0.529872 0.052987 0.000000
v -0.525338 -0.052987 -0.069162
v -0.525338 0.052987 -0.069162
v -0.511817 -0.052987 -0.137141
v -0.511817 0.052987 -0.137141
v -0.489537 -0.052987 -0.202773
v -0.489537 0.052987 -0.202773
v -0.458882 -0.052987 -0.264936
v -0.458882 0.052987 -0.264936
v -0.420375 -0.052987 -0.322565
v -0.420375 0.052987 -0.322565
v -0.374676 -0.052987 -0.374676
v -0.374676 0.052987 -0.374676
v -0.322565 -0.052987 -0.420375
v -0.322565 0.052987 -0.420375
v -0.264936 -0.052987 -0.458882
v -0.264936 0.052987 -0.458882
v -0.202773 -0.052987 -0.489537
v -0.202773 0.052987 -0.489537
v -0.137141 -0.052987 -0.511817
v -0.137141 0.052987 -0.511817
v -0.069162 -0.052987 -0.525338
v -0.069162 0.052987 -0.525338
v -0.238442 0.052987 -0.412994
v -0.182496 0.052987 -0.440584
v -0.000000 0.052987 -0.476884
v -0.062246 0.052987 -0.472805
v -0.123427 0.052987 -0.460635
v -0.476884 0.052987 0.000000
v -0.472805 0.052987 -0.062246
v -0.412994 0.052987 -0.238442
v -0.440584 0.052987 -0.182496
v -0.460635 0.052987 -0.123427
v -0.412994 0.052987 0.238442
v -0.378338 0.052987 0.290309
v -0.238442 0.052987 0.412994
v -0.290309 0.052987 0.378338
v -0.337208 0.052987 0.337208
v -0.000000 0.052987 0.476884
v 0.062246 0.052987 0.472805
v 0.182496 0.052987 0.440584
v 0.238442 0.052987 0.412994
v 0.123427 0.052987 0.460635
v 0.412994 0.052987 0.238442
v 0.440584 0.052987 0.182496
v 0.472805 0.052987 0.062246
v 0.476884 0.052987 0.000000
v 0.460635 0.052987 0.123427
v 0.238442 0.052987 -0.412994
v 0.290309 0.052987 -0.378338
v 0.378338 0.052987 -0.290309
v 0.412994 0.052987 -0.238442
v 0.337208 0.052987 -0.337208
v -0.472805 0.052987 0.062246
v -0.378338 0.052987 -0.290309
v -0.290309 0.052987 -0.378338
v 0.062246 0.052987 -0.472805
v -0.337208 0.052987 -0.337208
v -0.440584 0.052987 0.182496
v -0.182496 0.052987 0.440584
v -0.062246 0.052987 0.472805
v -0.123427 0.052987 0.460635
v 0.290309 0.052987 0.378338
v 0.182496 0.052987 -0.440584
v 0.378338 0.052987 0.290309
v 0.440584 0.052987 -0.182496
v 0.472805 0.052987 -0.062246
v 0.460635 0.052987 -0.123427
v -0.460635 0.052987 0.123427
v 0.337208 0.052987 0.337208
v 0.123427 0.052987 -0.460635
v 0.062246 -0.052987 -0.472805
v 0.123427 -0.052987 -0.460635
v 0.238442 -0.052987 -0.412994
v 0.290309 -0.052987 -0.378338
v 0.182496 -0.052987 -0.440584
v 0.440584 -0.052987 -0.182496
v 0.460635 -0.052987 -0.123427
v 0.476884 -0.052987 0.000000
v 0.472805 -0.052987 0.062246
v 0.472805 -0.052987 -0.062246
v 0.182496 -0.052987 0.440584
v 0.238442 -0.052987 0.412994
v 0.337208 -0.052987 0.337208
v 0.378338 -0.052987 0.290309
v 0.290309 -0.052987 0.378338
v -0.290309 -0.052987 0.378338
v -0.238442 -0.052987 0.412994
v -0.062246 -0.052987 0.472805
v -0.123427 -0.052987 0.460635
v -0.182496 -0.052987 0.440584
v -0.472805 -0.052987 0.062246
v -0.476884 -0.052987 0.000000
v -0.472805 -0.052987 -0.062246
v -0.440584 -0.052987 0.182496
v -0.460635 -0.052987 0.123427
v -0.378338 -0.052987 -0.290309
v -0.337208 -0.052987 -0.337208
v -0.182496 -0.052987 -0.440584
v -0.238442 -0.052987 -0.412994
v -0.290309 -0.052987 -0.378338
v -0.000000 -0.052987 -0.476884
v 0.337208 -0.052987 -0.337208
v 0.412994 -0.052987 -0.238442
v 0.460635 -0.052987 0.123427
v 0.378338 -0.052987 -0.290309
v -0.337208 -0.052987 0.337208
v -0.000000 -0.052987 0.476884
v 0.123427 -0.052987 0.460635
v 0.062246 -0.052987 0.472805
v 0.412994 -0.052987 0.238442
v -0.460635 -0.052987 -0.123427
v -0.440584 -0.052987 -0.182496
v -0.123427 -0.052987 -0.460635
v -0.412994 -0.052987 0.238442
v -0.412994 -0.052987 -0.238442
v -0.378338 -0.052987 0.290309
v 0.440584 -0.052987 0.182496
v -0.062246 -0.052987 -0.472805
vn 0.0654 -0.0000 -0.9979
vn 0.1951 -0.0000 -0.9808
vn 0.3214 -0.0000 -0.9469
vn 0.4423 -0.0000 -0.8969
vn 0.5556 -0.0000 -0.8315
vn 0.6593 -0.0000 -0.7518
vn 0.7518 -0.0000 -0.6593
vn 0.8315 -0.0000 -0.5556
vn 0.8969 -0.0000 -0.4423
vn 0.9469 -0.0000 -0.3214
vn 0.9808 -0.0000 -0.1951
vn 0.9979 -0.0000 -0.0654
vn 0.9979 -0.0000 0.0654
vn 0.9808 -0.0000 0.1951
vn 0.9469 -0.0000 0.3214
vn 0.8969 -0.0000 0.4423
vn 0.8315 -0.0000 0.5556
vn 0.7518 -0.0000 0.6593
vn 0.6593 -0.0000 0.7518
vn 0.5556 -0.0000 0.8315
vn 0.4423 -0.0000 0.8969
vn 0.3214 -0.0000 0.9469
vn 0.1951 -0.0000 0.9808
vn 0.0654 -0.0000 0.9979
vn -0.0654 -0.0000 0.9979
vn -0.1951 -0.0000 0.9808
vn -0.3214 -0.0000 0.9469
vn -0.4423 -0.0000 0.8969
vn -0.5556 -0.0000 0.8315
vn -0.6593 -0.0000 0.7518
vn -0.7518 -0.0000 0.6593
vn -0.8315 -0.0000 0.5556
vn -0.8969 -0.0000 0.4423
vn -0.9469 -0.0000 0.3214
vn -0.9808 -0.0000 0.1951
vn -0.9979 -0.0000 0.0654
vn -0.9979 -0.0000 -0.0654
vn -0.9808 -0.0000 -0.1951
vn -0.9469 -0.0000 -0.3214
vn -0.8969 -0.0000 -0.4423
vn -0.8315 -0.0000 -0.5556
vn -0.7518 -0.0000 -0.6593
vn -0.6593 -0.0000 -0.7518
vn -0.5556 -0.0000 -0.8315
vn -0.4423 -0.0000 -0.8969
vn -0.3214 -0.0000 -0.9469
vn -0.0000 1.0000 -0.0000
vn -0.1951 -0.0000 -0.9808
vn -0.0654 -0.0000 -0.9979
vn -0.0000 -1.0000 -0.0000
vt 1.000000 0.500000
vt 1.000000 1.000000
vt 0.979167 1.000000
vt 0.979167 0.500000
vt 0.958333 1.000000
vt 0.958333 0.500000
vt 0.937500 1.000000
vt 0.937500 0.500000
vt 0.916667 1.000000
vt 0.916667 0.500000
vt 0.895833 1.000000
vt 0.895833 0.500000
vt 0.875000 1.000000
vt 0.875000 0.500000
vt 0.854167 1.000000
vt 0.854167 0.500000
vt 0.833333 1.000000
vt 0.833333 0.500000
vt 0.812500 1.000000
vt 0.812500 0.500000
vt 0.791667 1.000000
vt 0.791667 0.500000
vt 0.770834 1.000000
vt 0.770834 0.500000
vt 0.750000 1.000000
vt 0.750000 0.500000
vt 0.729167 1.000000
vt 0.729167 0.500000
vt 0.708334 1.000000
vt 0.708334 0.500000
vt 0.687500 1.000000
vt 0.687500 0.500000
vt 0.666667 1.000000
vt 0.666667 0.500000
vt 0.645834 1.000000
vt 0.645834 0.500000
vt 0.625000 1.000000
vt 0.625000 0.500000
vt 0.604167 1.000000
vt 0.604167 0.500000
vt 0.583334 1.000000
vt 0.583334 0.500000
vt 0.562500 1.000000
vt 0.562500 0.500000
vt 0.541667 1.000000
vt 0.541667 0.500000
vt 0.520834 1.000000
vt 0.520834 0.500000
vt 0.500000 1.000000
vt 0.500000 0.500000
vt 0.479167 1.000000
vt 0.479167 0.500000
vt 0.458334 1.000000
vt 0.458334 0.500000
vt 0.437500 1.000000
vt 0.437500 0.500000
vt 0.416667 1.000000
vt 0.416667 0.500000
vt 0.395834 1.000000
vt 0.395834 0.500000
vt 0.375000 1.000000
vt 0.375000 0.500000
vt 0.354167 1.000000
vt 0.354167 0.500000
vt 0.333334 1.000000
vt 0.333334 0.500000
vt 0.312500 1.000000
vt 0.312500 0.500000
vt 0.291667 1.000000
vt 0.291667 0.500000
vt 0.270834 1.000000
vt 0.270834 0.500000
vt 0.250000 1.000000
vt 0.250000 0.500000
vt 0.229167 1.000000
vt 0.229167 0.500000
vt 0.208334 1.000000
vt 0.208334 0.500000
vt 0.187500 1.000000
vt 0.187500 0.500000
vt 0.166667 1.000000
vt 0.166667 0.500000
vt 0.145834 1.000000
vt 0.145834 0.500000
vt 0.125000 1.000000
vt 0.125000 0.500000
vt 0.104167 1.000000
vt 0.104167 0.500000
vt 0.083334 1.000000
vt 0.083334 0.500000
vt 0.062500 1.000000
vt 0.062500 0.500000
vt 0.041667 1.000000
vt 0.041667 0.500000
vt 0.080294 0.419706
vt 0.059595 0.396103
vt 0.042154 0.370000
vt 0.028269 0.341844
vt 0.018178 0.312117
vt 0.012053 0.281326
vt 0.010000 0.250000
vt 0.012053 0.218674
vt 0.018178 0.187883
vt 0.028269 0.158156
vt 0.042154 0.130000
vt 0.059595 0.103897
vt 0.080294 0.080294
vt 0.103897 0.059595
vt 0.130000 0.042154
vt 0.158156 0.028269
vt 0.187883 0.018178
vt 0.218674 0.012053
vt 0.250000 0.010000
vt 0.281326 0.012053
vt 0.312117 0.018178
vt 0.341844 0.028269
vt 0.370000 0.042154
vt 0.396103 0.059595
vt 0.419706 0.080294
vt 0.402735 0.097265
vt 0.381492 0.078636
vt 0.358000 0.062939
vt 0.332660 0.050442
vt 0.305905 0.041360
vt 0.278194 0.035848
vt 0.250000 0.034000
vt 0.221806 0.035848
vt 0.194095 0.041360
vt 0.167340 0.050442
vt 0.142000 0.062939
vt 0.118508 0.078636
vt 0.097265 0.097265
vt 0.078636 0.118508
vt 0.062939 0.142000
vt 0.050442 0.167340
vt 0.041360 0.194095
vt 0.035848 0.221806
vt 0.034000 0.250000
vt 0.035848 0.278194
vt 0.041360 0.305905
vt 0.050442 0.332660
vt 0.062939 0.358000
vt 0.078636 0.381492
vt 0.097265 0.402735
vt 0.440405 0.103897
vt 0.457846 0.130000
vt 0.471731 0.158156
vt 0.481822 0.187883
vt 0.487947 0.218674
vt 0.490000 0.250000
vt 0.487947 0.281326
vt 0.481822 0.312117
vt 0.471731 0.341844
vt 0.457846 0.370000
vt 0.440405 0.396103
vt 0.419706 0.419706
vt 0.396103 0.440405
vt 0.370000 0.457846
vt 0.341844 0.471731
vt 0.312117 0.481822
vt 0.281326 0.487947
vt 0.250000 0.490000
vt 0.218674 0.487947
vt 0.187883 0.481822
vt 0.158156 0.471731
vt 0.130000 0.457846
vt 0.103897 0.440405
vt 0.118508 0.421364
vt 0.142000 0.437062
vt 0.167340 0.449558
vt 0.194095 0.458640
vt 0.221806 0.464152
vt 0.250000 0.466000
vt 0.278194 0.464152
vt 0.305905 0.458640
vt 0.332660 0.449558
vt 0.358000 0.437061
vt 0.381492 0.421364
vt 0.402735 0.402735
vt 0.421364 0.381492
vt 0.437062 0.358000
vt 0.449558 0.332660
vt 0.458640 0.305905
vt 0.464152 0.278194
vt 0.466000 0.250000
vt 0.464152 0.221806
vt 0.458640 0.194095
vt 0.449558 0.167340
vt 0.437062 0.142000
vt 0.421364 0.118508
vt 0.020834 1.000000
vt 0.020834 0.500000
vt 0.000000 1.000000
vt 0.000000 0.500000
vt 0.550442 0.332660
vt 0.528269 0.341844
vt 0.542154 0.370000
vt 0.559595 0.396103
vt 0.580294 0.419706
vt 0.603897 0.440405
vt 0.630000 0.457846
vt 0.658156 0.471731
vt 0.687883 0.481822
vt 0.718674 0.487947
vt 0.750000 0.490000
vt 0.781326 0.487947
vt 0.812117 0.481822
vt 0.841844 0.471731
vt 0.870000 0.457846
vt 0.896103 0.440405
vt 0.919706 0.419706
vt 0.940405 0.396103
vt 0.957846 0.370000
vt 0.971731 0.341844
vt 0.981822 0.312117
vt 0.987947 0.281326
vt 0.990000 0.250000
vt 0.987947 0.218674
vt 0.981822 0.187883
vt 0.971731 0.158156
vt 0.949558 0.167340
vt 0.958640 0.194095
vt 0.964152 0.221806
vt 0.966000 0.250000
vt 0.964152 0.278194
vt 0.958640 0.305905
vt 0.949558 0.332660
vt 0.937062 0.358000
vt 0.921364 0.381492
vt 0.902735 0.402735
vt 0.881492 0.421364
vt 0.858000 0.437062
vt 0.832660 0.449558
vt 0.805905 0.458640
vt 0.778194 0.464152
vt 0.750000 0.466000
vt 0.721806 0.464152
vt 0.694095 0.458640
vt 0.667341 0.449558
vt 0.642000 0.437061
vt 0.618508 0.421364
vt 0.597265 0.402735
vt 0.578636 0.381492
vt 0.562939 0.358000
vt 0.957846 0.130000
vt 0.940405 0.103897
vt 0.919706 0.080294
vt 0.896103 0.059595
vt 0.870000 0.042154
vt 0.841844 0.028269
vt 0.812117 0.018178
vt 0.781326 0.012053
vt 0.750000 0.010000
vt 0.718674 0.012053
vt 0.687883 0.018178
vt 0.658156 0.028269
vt 0.630000 0.042154
vt 0.603897 0.059595
vt 0.580294 0.080294
vt 0.559595 0.103897
vt 0.542154 0.130000
vt 0.528269 0.158156
vt 0.518178 0.187883
vt 0.512053 0.218674
vt 0.510000 0.250000
vt 0.512053 0.281326
vt 0.518178 0.312117
vt 0.541360 0.305905
vt 0.535848 0.278194
vt 0.534000 0.250000
vt 0.535848 0.221806
vt 0.541360 0.194095
vt 0.550442 0.167340
vt 0.562939 0.142000
vt 0.578636 0.118508
vt 0.597265 0.097265
vt 0.618508 0.078636
vt 0.642000 0.062939
vt 0.667340 0.050442
vt 0.694095 0.041360
vt 0.721806 0.035848
vt 0.750000 0.034000
vt 0.778194 0.035848
vt 0.805905 0.041360
vt 0.832660 0.050442
vt 0.858000 0.062939
vt 0.881492 0.078636
vt 0.902735 0.097265
vt 0.921364 0.118508
vt 0.937062 0.142000
vt 0.979167 0.565975
vt 0.979167 0.693449
vt 1.000000 0.693449
vt 1.000000 0.565975
vt 0.958333 0.565975
vt 0.958333 0.693449
vt 0.937500 0.565975
vt 0.937500 0.693449
vt 0.916667 0.565975
vt 0.916667 0.693449
vt 0.895833 0.565975
vt 0.895833 0.693449
vt 0.875000 0.565975
vt 0.875000 0.693449
vt 0.854167 0.693449
vt 0.854167 0.565975
vt 0.833333 0.693449
vt 0.833333 0.565975
vt 0.812500 0.693449
vt 0.812500 0.565975
vt 0.791667 0.693449
vt 0.791667 0.565975
vt 0.770834 0.693449
vt 0.770834 0.565975
vt 0.750000 0.693449
vt 0.750000 0.565975
vt 0.729167 0.693449
vt 0.729167 0.565975
vt 0.708334 0.693449
vt 0.708334 0.565975
vt 0.687500 0.693449
vt 0.687500 0.565975
vt 0.666667 0.693449
vt 0.666667 0.565975
vt 0.645834 0.693449
vt 0.645834 0.565975
vt 0.625000 0.693449
vt 0.625000 0.565975
vt 0.604167 0.693449
vt 0.604167 0.565975
vt 0.583334 0.693449
vt 0.583334 0.565975
vt 0.562500 0.693449
vt 0.562500 0.565975
vt 0.541667 0.693449
vt 0.541667 0.565975
vt 0.520834 0.693449
vt 0.520834 0.565975
vt 0.500000 0.693449
vt 0.500000 0.565975
vt 0.479167 0.693449
vt 0.479167 0.565975
vt 0.458334 0.693449
vt 0.458334 0.565975
vt 0.437500 0.693449
vt 0.437500 0.565975
vt 0.416667 0.693449
vt 0.416667 0.565975
vt 0.395834 0.693449
vt 0.395834 0.565975
vt 0.375000 0.693449
vt 0.375000 0.565975
vt 0.354167 0.565975
vt 0.354167 0.693449
vt 0.333334 0.565975
vt 0.333334 0.693449
vt 0.312500 0.565975
vt 0.312500 0.693449
vt 0.291667 0.565975
vt 0.291667 0.693449
vt 0.270834 0.565975
vt 0.270834 0.693449
vt 0.250000 0.565975
vt 0.250000 0.693449
vt 0.229167 0.565975
vt 0.229167 0.693449
vt 0.208334 0.565975
vt 0.208334 0.693449
vt 0.187500 0.565975
vt 0.187500 0.693449
vt 0.166667 0.565975
vt 0.166667 0.693449
vt 0.145834 0.565975
vt 0.145834 0.693449
vt 0.125000 0.565975
vt 0.125000 0.693449
vt 0.104167 0.565975
vt 0.104167 0.693449
vt 0.083334 0.565975
vt 0.083334 0.693449
vt 0.062500 0.565975
vt 0.062500 0.693449
vt 0.041667 0.565975
vt 0.041667 0.693449
vt 0.020834 0.565975
vt 0.020834 0.693449
vt 0.000000 0.565975
vt 0.000000 0.693449
s 0
f 1/1/1 2/2/1 4/3/1 3/4/1
f 3/4/2 4/3/2 6/5/2 5/6/2
f 5/6/3 6/5/3 8/7/3 7/8/3
f 7/8/4 8/7/4 10/9/4 9/10/4
f 9/10/5 10/9/5 12/11/5 11/12/5
f 11/12/6 12/11/6 14/13/6 13/14/6
f 13/14/7 14/13/7 16/15/7 15/16/7
f 15/16/8 16/15/8 18/17/8 17/18/8
f 17/18/9 18/17/9 20/19/9 19/20/9
f 19/20/10 20/19/10 22/21/10 21/22/10
f 21/22/11 22/21/11 24/23/11 23/24/11
f 23/24/12 24/23/12 26/25/12 25/26/12
f 25/26/13 26/25/13 28/27/13 27/28/13
f 27/28/14 28/27/14 30/29/14 29/30/14
f 29/30/15 30/29/15 32/31/15 31/32/15
f 31/32/16 32/31/16 34/33/16 33/34/16
f 33/34/17 34/33/17 36/35/17 35/36/17
f 35/36/18 36/35/18 38/37/18 37/38/18
f 37/38/19 38/37/19 40/39/19 39/40/19
f 39/40/20 40/39/20 42/41/20 41/42/20
f 41/42/21 42/41/21 44/43/21 43/44/21
f 43/44/22 44/43/22 46/45/22 45/46/22
f 45/46/23 46/45/23 48/47/23 47/48/23
f 47/48/24 48/47/24 50/49/24 49/50/24
f 49/50/25 50/49/25 52/51/25 51/52/25
f 51/52/26 52/51/26 54/53/26 53/54/26
f 53/54/27 54/53/27 56/55/27 55/56/27
f 55/56/28 56/55/28 58/57/28 57/58/28
f 57/58/29 58/57/29 60/59/29 59/60/29
f 59/60/30 60/59/30 62/61/30 61/62/30
f 61/62/31 62/61/31 64/63/31 63/64/31
f 63/64/32 64/63/32 66/65/32 65/66/32
f 65/66/33 66/65/33 68/67/33 67/68/33
f 67/68/34 68/67/34 70/69/34 69/70/34
f 69/70/35 70/69/35 72/71/35 71/72/35
f 71/72/36 72/71/36 74/73/36 73/74/36
f 73/74/37 74/73/37 76/75/37 75/76/37
f 75/76/38 76/75/38 78/77/38 77/78/38
f 77/78/39 78/77/39 80/79/39 79/80/39
f 79/80/40 80/79/40 82/81/40 81/82/40
f 81/82/41 82/81/41 84/83/41 83/84/41
f 83/84/42 84/83/42 86/85/42 85/86/42
f 85/86/43 86/85/43 88/87/43 87/88/43
f 87/88/44 88/87/44 90/89/44 89/90/44
f 89/90/45 90/89/45 92/91/45 91/92/45
f 91/92/46 92/91/46 94/93/46 93/94/46
f 86/95/47 84/96/47 82/97/47 80/98/47 78/99/47 76/100/47 74/101/47 72/102/47 70/103/47 68/104/47 66/105/47 64/106/47 62/107/47 60/108/47 58/109/47 56/110/47 54/111/47 52/112/47 50/113/47 48/114/47 46/115/47 44/116/47 42/117/47 40/118/47 38/119/47 143/120/47 136/121/47 115/122/47 114/123/47 116/124/47 113/125/47 112/126/47 134/127/47 135/128/47 133/129/47 109/130/47 110/131/47 111/132/47 108/133/47 107/134/47 132/135/47 142/136/47 127/137/47 102/138/47 103/139/47 106/140/47 105/141/47 104/142/47 128/143/47 131/144/47
f 38/119/47 36/145/47 34/146/47 32/147/47 30/148/47 28/149/47 26/150/47 24/151/47 22/152/47 20/153/47 18/154/47 16/155/47 14/156/47 12/157/47 10/158/47 8/159/47 6/160/47 4/161/47 2/162/47 96/163/47 94/164/47 92/165/47 90/166/47 88/167/47 86/95/47 131/144/47 129/168/47 97/169/47 98/170/47 101/171/47 100/172/47 99/173/47 130/174/47 144/175/47 137/176/47 122/177/47 123/178/47 126/179/47 124/180/47 125/181/47 139/182/47 141/183/47 140/184/47 120/185/47 119/186/47 121/187/47 118/188/47 117/189/47 138/190/47 143/120/47
f 93/94/48 94/93/48 96/191/48 95/192/48
f 95/192/49 96/191/49 2/193/49 1/194/49
f 186/195/50 79/196/50 81/197/50 83/198/50 85/199/50 87/200/50 89/201/50 91/202/50 93/203/50 95/204/50 1/205/50 3/206/50 5/207/50 7/208/50 9/209/50 11/210/50 13/211/50 15/212/50 17/213/50 19/214/50 21/215/50 23/216/50 25/217/50 27/218/50 29/219/50 31/220/50 191/221/50 178/222/50 153/223/50 152/224/50 154/225/50 151/226/50 150/227/50 177/228/50 179/229/50 176/230/50 148/231/50 147/232/50 149/233/50 146/234/50 145/235/50 175/236/50 192/237/50 187/238/50 172/239/50 173/240/50 174/241/50 171/242/50 170/243/50 189/244/50
f 191/221/50 31/220/50 33/245/50 35/246/50 37/247/50 39/248/50 41/249/50 43/250/50 45/251/50 47/252/50 49/253/50 51/254/50 53/255/50 55/256/50 57/257/50 59/258/50 61/259/50 63/260/50 65/261/50 67/262/50 69/263/50 71/264/50 73/265/50 75/266/50 77/267/50 79/196/50 186/195/50 185/268/50 167/269/50 166/270/50 165/271/50 169/272/50 168/273/50 188/274/50 190/275/50 180/276/50 160/277/50 161/278/50 164/279/50 163/280/50 162/281/50 181/282/50 183/283/50 182/284/50 155/285/50 156/286/50 159/287/50 157/288/50 158/289/50 184/290/50
f 145/291/25 130/292/25 99/293/25 175/294/25
f 146/295/26 144/296/26 130/292/26 145/291/26
f 149/297/27 137/298/27 144/296/27 146/295/27
f 147/299/28 122/300/28 137/298/28 149/297/28
f 148/301/29 123/302/29 122/300/29 147/299/29
f 176/303/30 126/304/30 123/302/30 148/301/30
f 124/305/31 126/304/31 176/303/31 179/306/31
f 125/307/32 124/305/32 179/306/32 177/308/32
f 139/309/33 125/307/33 177/308/33 150/310/33
f 141/311/34 139/309/34 150/310/34 151/312/34
f 140/313/35 141/311/35 151/312/35 154/314/35
f 120/315/36 140/313/36 154/314/36 152/316/36
f 119/317/37 120/315/37 152/316/37 153/318/37
f 121/319/38 119/317/38 153/318/38 178/320/38
f 118/321/39 121/319/39 178/320/39 191/322/39
f 117/323/40 118/321/40 191/322/40 184/324/40
f 138/325/41 117/323/41 184/324/41 158/326/41
f 143/327/42 138/325/42 158/326/42 157/328/42
f 136/329/43 143/327/43 157/328/43 159/330/43
f 115/331/44 136/329/44 159/330/44 156/332/44
f 114/333/45 115/331/45 156/332/45 155/334/45
f 116/335/46 114/333/46 155/334/46 182/336/46
f 113/337/48 116/335/48 182/336/48 183/338/48
f 112/339/49 113/337/49 183/338/49 181/340/49
f 134/341/1 112/339/1 181/340/1 162/342/1
f 135/343/2 134/341/2 162/342/2 163/344/2
f 133/345/3 135/343/3 163/344/3 164/346/3
f 109/347/4 133/345/4 164/346/4 161/348/4
f 110/349/5 109/347/5 161/348/5 160/350/5
f 111/351/6 110/349/6 160/350/6 180/352/6
f 190/353/7 108/354/7 111/351/7 180/352/7
f 188/355/8 107/356/8 108/354/8 190/353/8
f 168/357/9 132/358/9 107/356/9 188/355/9
f 169/359/10 142/360/10 132/358/10 168/357/10
f 165/361/11 127/362/11 142/360/11 169/359/11
f 166/363/12 102/364/12 127/362/12 165/361/12
f 167/365/13 103/366/13 102/364/13 166/363/13
f 185/367/14 106/368/14 103/366/14 167/365/14
f 186/369/15 105/370/15 106/368/15 185/367/15
f 189/371/16 104/372/16 105/370/16 186/369/16
f 170/373/17 128/374/17 104/372/17 189/371/17
f 171/375/18 131/376/18 128/374/18 170/373/18
f 174/377/19 129/378/19 131/376/19 171/375/19
f 173/379/20 97/380/20 129/378/20 174/377/20
f 172/381/21 98/382/21 97/380/21 173/379/21
f 187/383/22 101/384/22 98/382/22 172/381/22
f 192/385/23 100/386/23 101/384/23 187/383/23
f 175/387/24 99/388/24 100/386/24 192/385/24
