# Blender 3.6.5
# www.blender.org
mtllib model.mtl
o Cylinder
v -0.000000 -0.288766 -0.577532
v -0.000000 -0.288766 -0.577532
v -0.000000 -0.288766 -0.577532
v -0.000000 0.288766 -0.577532
v -0.000000 0.288766 -0.577532
v -0.000000 0.288766 -0.577532
v 0.408377 -0.288766 -0.408377
v 0.408377 -0.288766 -0.408377
v 0.408377 -0.288766 -0.408377
v 0.408377 0.288766 -0.408377
v 0.408377 0.288766 -0.408377
v 0.408377 0.288766 -0.408377
v 0.577532 -0.288766 -0.000000
v 0.577532 -0.288766 -0.000000
v 0.577532 -0.288766 -0.000000
v 0.577532 0.288766 -0.000000
v 0.577532 0.288766 -0.000000
v 0.577532 0.288766 -0.000000
v 0.408377 -0.288766 0.408377
v 0.408377 -0.288766 0.408377
v 0.408377 -0.288766 0.408377
v 0.408377 0.288766 0.408377
v 0.408377 0.288766 0.408377
v 0.408377 0.288766 0.408377
v -0.000000 -0.288766 0.577532
v -0.000000 -0.288766 0.577532
v -0.000000 -0.288766 0.577532
v -0.000000 0.288766 0.577532
v -0.000000 0.288766 0.577532
v -0.000000 0.288766 0.577532
v -0.408377 -0.288766 0.408377
v -0.408377 -0.288766 0.408377
v -0.408377 -0.288766 0.408377
v -0.408377 0.288766 0.408377
v -0.408377 0.288766 0.408377
v -0.408377 0.288766 0.408377
v -0.577532 -0.288766 -0.000000
v -0.577532 -0.288766 -0.000000
v -0.577532 -0.288766 -0.000000
v -0.577532 0.288766 -0.000000
v -0.577532 0.288766 -0.000000
v -0.577532 0.288766 -0.000000
v -0.408377 -0.288766 -0.408377
v -0.408377 -0.288766 -0.408377
v -0.408377 -0.288766 -0.408377
v -0.408377 0.288766 -0.408377
v -0.408377 0.288766 -0.408377
v -0.408377 0.288766 -0.408377
vn 0.3827 -0.0000 -0.9239
vn 0.9239 -0.0000 -0.3827
vn 0.9239 -0.0000 0.3827
vn 0.3827 -0.0000 0.9239
vn -0.3827 -0.0000 0.9239
vn -0.9239 -0.0000 0.3827
vn -0.0000 1.0000 -0.0000
vn -0.9239 -0.0000 -0.3827
vn -0.3827 -0.0000 -0.9239
vn -0.0000 -1.0000 -0.0000
vt 0.525560 0.983980
vt 0.525560 0.993263
vt 0.523239 0.993263
vt 0.523239 0.983980
vt 0.520919 0.993263
vt 0.520919 0.983980
vt 0.518598 0.993263
vt 0.518598 0.983980
vt 0.516277 0.993263
vt 0.516277 0.983980
vt 0.513956 0.993263
vt 0.513956 0.983980
vt 0.511635 0.993263
vt 0.511635 0.983980
vt 0.516091 0.979338
vt 0.514786 0.982489
vt 0.511635 0.983794
vt 0.508485 0.982489
vt 0.507180 0.979338
vt 0.508485 0.976187
vt 0.511635 0.974882
vt 0.514786 0.976187
vt 0.509315 0.993263
vt 0.509315 0.983980
vt 0.506994 0.993263
vt 0.506994 0.983980
vt 0.517768 0.982489
vt 0.520919 0.983794
vt 0.524069 0.982489
vt 0.525374 0.979338
vt 0.524069 0.976187
vt 0.520919 0.974882
vt 0.517768 0.976187
vt 0.516463 0.979338
s 0
usemtl Material.003
f 3/1/1 6/2/1 11/3/1
f 3/1/1 11/3/1 7/4/1
f 8/4/2 12/3/2 17/5/2
f 8/4/2 17/5/2 13/6/2
f 14/6/3 18/5/3 24/7/3
f 14/6/3 24/7/3 20/8/3
f 19/8/4 23/7/4 30/9/4
f 19/8/4 30/9/4 26/10/4
f 25/10/5 29/9/5 36/11/5
f 25/10/5 36/11/5 32/12/5
f 31/12/6 35/11/6 42/13/6
f 31/12/6 42/13/6 38/14/6
f 16/15/7 10/16/7 5/17/7
f 5/17/7 46/18/7 40/19/7
f 40/19/7 34/20/7 28/21/7
f 28/21/7 22/22/7 16/15/7
f 16/15/7 5/17/7 40/19/7
f 40/19/7 28/21/7 16/15/7
f 37/14/8 41/13/8 47/23/8
f 37/14/8 47/23/8 43/24/8
f 44/24/9 48/23/9 4/25/9
f 44/24/9 4/25/9 1/26/9
f 45/27/10 2/28/10 9/29/10
f 9/29/10 15/30/10 21/31/10
f 21/31/10 27/32/10 33/33/10
f 33/33/10 39/34/10 45/27/10
f 45/27/10 9/29/10 21/31/10
f 21/31/10 33/33/10 45/27/10
